<?xml version="1.0" encoding="UTF-8" standalone="no"?>
<svg
   xmlns:dc="http://purl.org/dc/elements/1.1/"
   xmlns:cc="http://creativecommons.org/ns#"
   xmlns:rdf="http://www.w3.org/1999/02/22-rdf-syntax-ns#"
   xmlns:svg="http://www.w3.org/2000/svg"
   xmlns="http://www.w3.org/2000/svg"
   xmlns:sodipodi="http://sodipodi.sourceforge.net/DTD/sodipodi-0.dtd"
   xmlns:inkscape="http://www.inkscape.org/namespaces/inkscape"
   inkscape:version="1.0 (4035a4fb49, 2020-05-01)"
   sodipodi:docname="github.svg"
   id="svg2136"
   version="1.1"
   fill="none"
   viewBox="0 0 15 15"
   height="15px"
   width="15px">
  <metadata
     id="metadata2142">
    <rdf:RDF>
      <cc:Work
         rdf:about="">
        <dc:format>image/svg+xml</dc:format>
        <dc:type
           rdf:resource="http://purl.org/dc/dcmitype/StillImage" />
        <dc:title></dc:title>
      </cc:Work>
    </rdf:RDF>
  </metadata>
  <defs
     id="defs2140" />
  <sodipodi:namedview
     inkscape:current-layer="svg2136"
     inkscape:window-maximized="1"
     inkscape:window-y="-8"
     inkscape:window-x="-8"
     inkscape:cy="7.9206298"
     inkscape:cx="9.7305364"
     inkscape:zoom="34.648232"
     inkscape:pagecheckerboard="true"
     showgrid="false"
     id="namedview2138"
     inkscape:window-height="1017"
     inkscape:window-width="1920"
     inkscape:pageshadow="2"
     inkscape:pageopacity="0"
     guidetolerance="10"
     gridtolerance="10"
     objecttolerance="10"
     borderopacity="1"
     bordercolor="#666666"
     pagecolor="#ffffff" />
  <path
     style="stroke-width:0.656235;fill:#ffffff;fill-opacity:1"
     id="path2134"
     fill="#000000"
     d="M 9.1671449,3.6393296 C 8.375096,3.4506543 7.5513557,3.4506543 6.7593067,3.6393362 6.3018374,3.351426 5.952274,3.2193055 5.6982123,3.1636411 5.5600862,3.1333737 5.4506054,3.1258118 5.3682599,3.128071 c -0.041095,0.00112 -0.075106,0.00468 -0.1021963,0.00896 -0.013532,0.00213 -0.025288,0.00444 -0.035295,0.00669 -0.005,0.00112 -0.00957,0.00223 -0.013681,0.0033 l -0.00584,0.00156 -0.00267,7.509e-4 -0.00128,3.655e-4 -0.00123,3.588e-4 c -6.5e-6,0 0,-6.6e-6 0,0 -2.787e-4,1.262e-4 0.00109,0.0039 0.089021,0.3191546 L 5.206064,3.150059 C 5.1140167,3.1770439 5.0383205,3.24439 4.9992865,3.3340164 4.8903047,3.5842168 4.8307847,3.8540928 4.8241612,4.1280288 4.8192358,4.3316019 4.8435973,4.5344175 4.8961504,4.7300035 4.7580438,4.9015216 4.645517,5.0935858 4.5626012,5.2999631 4.453775,5.5708491 4.3981046,5.8610784 4.3987786,6.1540454 4.3988628,7.1856992 4.6957111,7.8793469 5.2015922,8.3250536 5.5560292,8.6373373 5.9869076,8.803493 6.4183434,8.8986613 6.3470996,9.1015965 6.3286097,9.3162932 6.3430296,9.5351096 V 9.9326082 C 6.0790327,9.9895515 5.8967398,9.9715487 5.7667795,9.9275393 5.6034754,9.8722721 5.4782786,9.7611694 5.3588562,9.6014928 5.2983706,9.5206902 5.2426484,9.4319143 5.1841328,9.3347658 L 5.1469912,9.2727691 C 5.1011652,9.1960205 5.0517099,9.1132915 5.001801,9.0378054 4.8781402,8.850818 4.6956981,8.6171567 4.4000553,8.5375708 l -0.3134197,-0.08437 -0.1645744,0.6426813 0.3134197,0.08439 c 0.05149,0.013888 0.1192668,0.063127 0.2299272,0.2304453 0.040661,0.061464 0.079449,0.1263854 0.1237386,0.2004766 0.013908,0.02326 0.028393,0.047509 0.043616,0.072828 0.060829,0.1009363 0.1305951,0.2133022 0.2118842,0.321946 0.1641142,0.219348 0.3875605,0.440424 0.7190229,0.55259 0.2277431,0.07708 0.4851619,0.09555 0.7793595,0.04924 v 1.241334 c 0,0.183466 0.14508,0.332245 0.3240419,0.332245 h 2.592335 c 0.1789676,0 0.3240416,-0.148779 0.3240416,-0.332245 V 9.4818879 c 0,-0.2098457 -0.00891,-0.4016839 -0.066511,-0.5806975 0.4292588,-0.092889 0.8567352,-0.2591976 1.2088392,-0.5717338 0.505699,-0.4488364 0.801938,-1.1487303 0.801938,-2.1866304 v -0.00107 c -0.0017,-0.5174848 -0.178741,-1.015952 -0.497404,-1.4117354 0.05256,-0.1955927 0.07693,-0.3984083 0.072,-0.6019881 -0.0066,-0.2739399 -0.06611,-0.5438159 -0.175113,-0.7940163 -0.03908,-0.089653 -0.114775,-0.1570057 -0.206868,-0.183984 l -0.08898,0.3194603 c 0.08898,-0.3194603 0.08807,-0.3197261 0.08775,-0.3198191 l -0.0012,-3.655e-4 -0.0027,-7.442e-4 -0.0058,-0.00156 c -0.0041,-0.00106 -0.0087,-0.00217 -0.01368,-0.00329 -0.01,-0.00225 -0.02171,-0.00455 -0.03526,-0.00668 -0.02709,-0.00428 -0.06112,-0.00784 -0.102207,-0.00896 -0.08237,-0.00226 -0.191897,0.00531 -0.330069,0.035563 C 9.9739851,3.2193043 9.6244734,3.351418 9.1671342,3.6393283 Z" />
  <rect
     y="0.64577317"
     x="0.66454995"
     height="13.813104"
     width="13.736604"
     id="rect2709"
     style="fill:none;stroke:#ffffff;stroke-width:1.29639;stroke-linecap:butt;stroke-linejoin:round;stroke-miterlimit:4;stroke-dasharray:none;stroke-opacity:1;paint-order:stroke markers fill" />
</svg>
