<?xml version="1.0" encoding="UTF-8" standalone="no"?>
<svg
   xmlns:dc="http://purl.org/dc/elements/1.1/"
   xmlns:cc="http://creativecommons.org/ns#"
   xmlns:rdf="http://www.w3.org/1999/02/22-rdf-syntax-ns#"
   xmlns:svg="http://www.w3.org/2000/svg"
   xmlns="http://www.w3.org/2000/svg"
   xmlns:sodipodi="http://sodipodi.sourceforge.net/DTD/sodipodi-0.dtd"
   xmlns:inkscape="http://www.inkscape.org/namespaces/inkscape"
   version="1.1"
   id="Layer_1"
   x="0px"
   y="0px"
   viewBox="0 0 485 485"
   style="enable-background:new 0 0 485 485;"
   xml:space="preserve"
   sodipodi:docname="twitter.svg"
   inkscape:version="1.0 (4035a4fb49, 2020-05-01)"><metadata
   id="metadata1543"><rdf:RDF><cc:Work
       rdf:about=""><dc:format>image/svg+xml</dc:format><dc:type
         rdf:resource="http://purl.org/dc/dcmitype/StillImage" /><dc:title></dc:title></cc:Work></rdf:RDF></metadata><defs
   id="defs1541">
	
	
</defs><sodipodi:namedview
   inkscape:pagecheckerboard="true"
   inkscape:document-rotation="0"
   pagecolor="#ffffff"
   bordercolor="#666666"
   borderopacity="1"
   objecttolerance="10"
   gridtolerance="10"
   guidetolerance="10"
   inkscape:pageopacity="0"
   inkscape:pageshadow="2"
   inkscape:window-width="1920"
   inkscape:window-height="1017"
   id="namedview1539"
   showgrid="false"
   inkscape:zoom="1.6153846"
   inkscape:cx="227.5"
   inkscape:cy="118.21917"
   inkscape:window-x="-8"
   inkscape:window-y="-8"
   inkscape:window-maximized="1"
   inkscape:current-layer="Layer_1" />
<path
   id="path1502"
   d="m 85,341.458 c 28.599,18.34 62.568,29.037 99.065,29.037 118.871,0 183.873,-98.473 183.873,-183.876 0,-2.799 -0.063,-5.587 -0.186,-8.36 12.629,-9.111 23.585,-20.493 32.249,-33.453 -11.59,5.14 -24.045,8.616 -37.118,10.178 13.344,-8 23.591,-20.662 28.415,-35.754 -12.488,7.404 -26.319,12.785 -41.038,15.681 -11.788,-12.56 -28.584,-20.406 -47.173,-20.406 -35.688,0 -64.626,28.935 -64.626,64.623 0,5.065 0.574,9.997 1.677,14.729 -53.71,-2.698 -101.33,-28.424 -133.203,-67.526 -5.564,9.547 -8.751,20.647 -8.751,32.492 0,22.419 11.406,42.201 28.748,53.79 -10.595,-0.336 -20.56,-3.245 -29.271,-8.084 -0.006,0.271 -0.006,0.541 -0.006,0.814 0,31.311 22.278,57.429 51.841,63.368 -5.423,1.474 -11.133,2.268 -17.027,2.268 -4.164,0 -8.213,-0.406 -12.161,-1.163 8.225,25.676 32.093,44.361 60.373,44.88 -22.119,17.336 -49.984,27.668 -80.262,27.668 -5.22,0.001 -10.363,-0.305 -15.419,-0.906 z"
   style="fill:#ffffff;fill-opacity:1" />
<g
   id="g1508">
</g>
<g
   id="g1510">
</g>
<g
   id="g1512">
</g>
<g
   id="g1514">
</g>
<g
   id="g1516">
</g>
<g
   id="g1518">
</g>
<g
   id="g1520">
</g>
<g
   id="g1522">
</g>
<g
   id="g1524">
</g>
<g
   id="g1526">
</g>
<g
   id="g1528">
</g>
<g
   id="g1530">
</g>
<g
   id="g1532">
</g>
<g
   id="g1534">
</g>
<g
   id="g1536">
</g>
<rect
   style="fill:none;stroke:#ffffff;stroke-width:49.062;stroke-linecap:round;stroke-linejoin:round;stroke-miterlimit:4;stroke-dasharray:none;stroke-opacity:1;paint-order:stroke markers fill"
   id="rect1547"
   width="435.24765"
   height="438.23389"
   x="26.226408"
   y="23.85927" /></svg>
